<svg xmlns="http://www.w3.org/2000/svg" viewBox="0 0 512 512" role="img" aria-label="RC Drift Sync">
  <defs>
    <linearGradient id="bg" x1="70" y1="35" x2="442" y2="477" gradientUnits="userSpaceOnUse">
      <stop stop-color="#05080a"/>
      <stop offset="1" stop-color="#151b1f"/>
    </linearGradient>
    <linearGradient id="blue" x1="115" y1="140" x2="388" y2="332" gradientUnits="userSpaceOnUse">
      <stop stop-color="#59d6ff"/>
      <stop offset="1" stop-color="#0077ff"/>
    </linearGradient>
    <linearGradient id="silver" x1="120" y1="122" x2="380" y2="323" gradientUnits="userSpaceOnUse">
      <stop stop-color="#ffffff"/>
      <stop offset=".5" stop-color="#c6ccd1"/>
      <stop offset="1" stop-color="#f8fbff"/>
    </linearGradient>
    <filter id="glow" x="-30%" y="-30%" width="160%" height="160%">
      <feGaussianBlur stdDeviation="5" result="blur"/>
      <feMerge>
        <feMergeNode in="blur"/>
        <feMergeNode in="SourceGraphic"/>
      </feMerge>
    </filter>
  </defs>
  <rect width="512" height="512" rx="112" fill="url(#bg)"/>
  <rect x="7" y="7" width="498" height="498" rx="106" fill="none" stroke="#59d6ff" stroke-opacity=".42" stroke-width="7"/>
  <path d="M139 223a122 122 0 0 1 182-75l24-34 43 106-111-5 24-34a82 82 0 0 0-123 50z" fill="url(#silver)"/>
  <path d="M373 289a122 122 0 0 1-182 75l-24 34-43-106 111 5-24 34a82 82 0 0 0 123-50z" fill="url(#blue)" filter="url(#glow)"/>
  <text x="256" y="370" text-anchor="middle" font-family="Arial Black, Arial, sans-serif" font-size="74" font-weight="900" fill="#f5f8fa">RC</text>
  <text x="256" y="421" text-anchor="middle" font-family="Arial, sans-serif" font-size="24" font-weight="800" letter-spacing="3" fill="#c8d0d6">DRIFT SYNC</text>
  <rect x="134" y="456" width="244" height="6" rx="3" fill="#59d6ff"/>
</svg>
