<svg role="img" aria-label="reve d mark" viewBox="0 0 589 373" version="1.1" xmlns="http://www.w3.org/2000/svg" >
<title>reve d mark</title><path fill="rgb(74,27,31)" stroke="rgb(74,27,31)" stroke-width="0" opacity="1" d="M 238.5 128 L 240 128.5 L 230.5 147 L 228.5 146 L 228 149.5 L 229 149.5 L 229.5 148 L 230 150.5 L 228 152.5 L 217 180.5 L 217 183.5 L 207 208.5 L 199 235 L 184.5 230 L 176.5 229 L 165.5 225 L 158 224 L 158 221.5 L 183 186.5 Q 203 160.5 226.5 138 L 238.5 128 Z M 236 132 L 234 135 L 236 134 L 236 132 Z M 231 135 L 230 138 L 232 138 L 233 140 L 234 137 Q 235 133 231 135 Z M 227 139 L 226 142 L 229 142 Q 230 138 227 139 Z M 226 142 L 225 143 Q 222 142 223 145 L 226 144 L 226 142 Z M 230 142 L 231 145 L 232 143 L 230 142 Z M 220 147 L 218 149 L 220 149 L 220 147 Z M 218 149 L 214 153 Q 213 155 216 154 L 218 151 L 218 149 Z M 227 150 L 225 155 L 227 154 L 227 150 Z M 214 154 L 212 157 L 214 156 L 214 154 Z M 225 155 L 223 158 L 225 159 L 225 155 Z M 223 160 L 222 164 L 223 164 L 223 160 Z M 205 163 L 206 165 Q 207 162 205 163 Z M 220 165 L 221 169 L 222 166 L 220 165 Z M 200 167 L 198 172 L 202 169 Q 203 166 200 167 Z M 219 170 L 218 173 L 219 173 L 219 170 Z M 196 172 L 196 174 L 198 173 L 196 172 Z M 195 175 L 192 178 L 193 179 L 195 178 L 195 175 Z M 213 178 Q 210 182 214 181 L 213 178 Z M 191 180 L 190 182 L 192 181 L 191 180 Z M 214 184 L 212 188 L 214 187 L 214 184 Z M 187 185 L 185 187 L 187 187 L 187 185 Z M 185 188 L 183 190 L 185 190 L 185 188 Z M 179 193 L 179 195 L 181 194 L 179 193 Z M 209 194 L 209 198 L 211 197 Q 212 193 209 194 Z M 179 195 L 177 198 L 179 197 L 179 195 Z M 207 199 Q 205 204 209 203 Q 211 198 207 199 Z M 173 201 L 173 203 L 175 202 L 173 201 Z M 173 203 L 171 206 L 173 205 L 173 203 Z M 205 205 L 205 209 L 207 208 Q 208 204 205 205 Z M 170 207 L 167 211 L 167 213 Q 164 212 165 215 L 167 214 L 168 214 L 168 211 Q 171 212 170 210 Q 172 208 170 207 Z M 203 210 L 203 215 L 205 214 Q 206 209 203 210 Z M 164 215 L 163 218 L 164 218 L 164 215 Z M 201 217 L 201 221 L 203 220 Q 204 216 201 217 Z M 199 223 L 200 227 L 201 225 Q 202 222 199 223 Z M 198 228 L 197 232 L 198 232 L 198 228 Z " /><path fill="rgb(74,27,31)" stroke="rgb(74,27,31)" stroke-width="0" opacity="1" d="M 69.5 207 L 74.5 207 L 78 208 Q 79.3 211 75.5 210 L 69.5 208 L 69.5 207 Z " /><path fill="rgb(74,27,31)" stroke="rgb(74,27,31)" stroke-width="0" opacity="1" d="M 14.5 213 L 16 215.5 L 13 217 Q 14 220 11 219 L 14.5 213 Z " /><path fill="rgb(74,27,31)" stroke="rgb(74,27,31)" stroke-width="0" opacity="1" d="M 144.5 243 L 162.5 253 L 168.5 258 L 178.5 262 L 189 269.5 L 185 282.5 L 185 286.5 L 182 295.5 L 180 308.5 L 178 312.5 L 178 318.5 L 176 322.5 L 176 329.5 L 174 334.5 L 174 341.5 L 172 346.5 L 172 355.5 L 169.5 365 L 168.5 355 L 167 361.5 L 168 365 L 79.5 365 L 79 363.5 L 78 363.5 L 77.5 365 L 77 362.5 L 111 297.5 L 135 256.5 L 144.5 243 Z M 140 251 L 140 253 L 142 252 L 140 251 Z M 145 251 L 143 253 L 145 253 L 145 251 Z M 138 254 Q 137 257 140 256 Q 141 253 138 254 Z M 150 254 Q 149 257 152 256 Q 153 253 150 254 Z M 137 257 L 134 261 L 135 263 L 137 260 L 137 257 Z M 131 268 L 129 270 Q 128 272 131 271 L 131 268 Z M 127 274 L 125 277 L 127 277 L 127 274 Z M 186 274 Q 183 275 184 279 L 186 278 L 186 274 Z M 125 278 L 119 286 Q 118 288 121 287 L 125 281 L 125 278 Z M 184 280 L 182 282 Q 180 287 184 286 L 184 280 Z M 176 282 L 176 285 Q 179 284 176 282 Z M 180 288 L 180 295 L 182 294 L 182 288 L 180 288 Z M 120 291 L 120 294 Q 123 293 120 291 Z M 116 293 L 113 298 L 116 296 L 116 293 Z M 179 297 L 179 303 L 180 301 L 179 297 Z M 113 299 L 111 302 L 113 301 L 113 299 Z M 111 303 L 107 308 L 107 310 L 108 310 L 110 307 Q 114 305 111 303 Z M 176 305 L 176 310 L 178 310 L 178 305 L 176 305 Z M 106 311 L 104 314 L 106 314 L 106 311 Z M 176 313 L 173 324 Q 172 326 175 325 Q 174 321 176 320 L 176 313 Z M 104 314 L 102 318 L 104 318 L 104 314 Z M 102 318 L 100 321 Q 99 323 102 322 L 102 318 Z M 104 323 L 102 325 L 104 326 L 104 323 Z M 98 325 L 97 328 L 98 328 L 98 325 Z M 100 327 L 100 329 L 102 328 L 100 327 Z M 173 328 L 172 331 L 173 331 L 173 328 Z M 96 329 L 95 333 L 96 333 L 96 329 Z M 94 333 L 93 336 L 94 336 L 94 333 Z M 173 334 L 172 339 L 173 339 L 173 334 Z M 92 338 L 90 341 L 92 341 L 92 338 Z M 171 341 L 169 344 Q 171 346 170 353 L 171 353 L 171 341 Z M 90 343 L 88 346 L 90 345 L 90 343 Z M 88 346 L 84 352 Q 83 355 86 354 L 88 349 L 88 346 Z M 84 354 L 80 360 L 81 362 L 84 357 L 84 354 Z " /><path fill="rgb(74,27,31)" stroke="rgb(74,27,31)" stroke-width="0" opacity="1" d="M 423.5 343 L 424.5 345 Q 421.7 345.7 423.5 343 Z " /><path fill="rgb(208,89,106)" stroke="rgb(208,89,106)" stroke-width="0" opacity="1" d="M 434.5 8 L 471.5 8 L 472.5 9 L 485.5 9 L 486.5 10 L 501.5 11 L 505.5 13 L 510.5 13 L 518.5 15 L 536.5 21 L 549.5 27 L 560.5 36 L 562 36 Q 560.9 38.7 563.5 38 L 566 42 Q 568.7 40.9 568 43.5 L 573 48.5 L 579 61.5 L 581 69.5 L 581 93.5 L 577 110.5 Q 573.2 115.2 572 122.5 L 556 151 Q 553.3 149.9 554 152.5 L 544 164.5 L 544 166 L 541 167.5 L 531 178.5 L 531 180 L 529.5 180 L 515 193.5 Q 515.8 195.8 513.5 195 L 492.5 212 L 474.5 224 L 430.5 249 L 412.5 257 L 404.5 262 L 390.5 267 L 386.5 270 L 381.5 271 L 374.5 275 L 362.5 279 L 357.5 282 L 349.5 284 L 338 289.5 L 391.5 319 L 403.5 328 L 408.5 330 L 432.5 346 L 457 364.5 L 453.5 365 L 429.5 347 L 396.5 325 L 394.5 325 L 386.5 319 L 369.5 310 L 364.5 306 L 362.5 306 L 357.5 302 L 355.5 302 L 353.5 300 L 351.5 300 L 334 291 Q 333.3 288 335.5 287 L 370.5 274 L 384.5 267 L 389.5 266 L 395.5 262 L 406.5 258 L 408.5 256 L 410.5 256 L 412.5 254 L 436.5 243 L 466.5 225 L 468.5 225 L 496.5 206 L 500.5 202 L 503 202 L 504.5 199 Q 520.4 187.9 533 173.5 Q 532.3 171.3 534.5 172 L 536 169 Q 538.7 170.1 538 167.5 L 552 151.5 L 563 134.5 L 569 120.5 L 571 118.5 L 571 115.5 L 573 112.5 L 578 95.5 L 579 74.5 L 578 73.5 L 577 63.5 L 571 50.5 L 560.5 38 L 539.5 25 L 529.5 21 L 526.5 21 L 523.5 19 Q 518.5 19.5 516.5 17 L 511.5 17 L 508.5 15 L 502.5 15 L 496.5 13 L 489.5 13 L 488.5 12 L 477.5 12 L 476.5 11 L 429.5 11 L 428.5 12 L 416.5 12 L 415.5 13 L 390.5 15 L 385.5 17 L 378.5 17 L 373.5 19 L 366.5 19 L 364.5 21 Q 357.5 20 354.5 23 L 348.5 23 L 345.5 25 Q 340.2 24.2 338.5 27 L 333.5 27 L 330.5 29 L 326.5 29 L 323.5 31 L 319.5 31 L 309.5 35 L 293.5 39 L 246.5 58 L 243.5 58 L 232.5 64 L 229.5 64 L 227.5 66 L 216.5 70 L 214.5 72 L 201.5 77 L 199.5 79 L 177.5 89 L 141.5 110 L 139.5 110 L 121.5 122 L 119.5 122 L 68.5 157 L 33 186.5 L 31.5 189 Q 29.3 188.3 30 190.5 L 24 196.5 L 11 219 L 13 219 Q 11.9 216.3 14.5 217 L 35.5 203 L 73.5 181 L 75.5 181 L 80.5 177 L 82.5 177 L 84.5 175 L 86.5 175 L 88.5 173 L 135.5 150 L 187.5 129 L 190.5 129 L 206.5 123 L 209.5 123 L 212.5 121 L 216.5 121 L 219.5 119 L 223.5 119 L 226.5 117 L 231.5 117 Q 233.2 114.2 238.5 115 L 241.5 113 L 246.5 113 L 249.5 111 L 263.5 109 L 266.5 107 L 271.5 107 L 281.5 104 L 298.5 102 L 304.5 100 L 315.5 100 L 321.5 98 L 354.5 98 L 355.5 99 L 368.5 100 L 383.5 105 Q 397.1 111.4 406 122.5 L 415 138.5 L 417 146.5 L 417 165.5 L 411 186.5 L 399 208.5 Q 384.1 231.1 364.5 249 L 348.5 263 L 347 263 Q 348.1 265.7 345.5 265 L 326.5 280 L 321.5 283 L 318.5 283 L 300.5 275 L 294.5 271 L 282.5 267 L 280.5 265 L 237.5 248 L 234.5 248 L 220.5 242 L 201.5 237 L 199 234.5 L 207 208.5 L 209 205.5 L 222 167.5 L 228 152.5 L 230 150.5 L 230 147.5 L 240 128.5 L 238.5 128 L 213 151.5 Q 181.8 184.1 158 223 L 152.5 223 L 143.5 220 L 139.5 220 L 130.5 217 L 125.5 217 L 121.5 215 L 116.5 215 L 111.5 213 L 104.5 213 L 100.5 211 L 92.5 211 L 88.5 209 L 78.5 209 Q 75.8 206.2 69.5 207 L 69.5 208 L 77.5 210 L 88.5 216 L 112.5 226 L 143 242.5 L 143 245.5 L 135 256.5 L 102 313.5 L 100 319.5 L 94 328.5 L 94 330.5 L 77 362.5 L 77 365 L 74 364.5 L 76 362.5 L 76 360.5 L 79 356.5 L 91 330.5 L 97 321.5 L 99 315.5 L 110 297.5 L 110 295.5 L 141 244.5 L 138.5 242 L 112.5 230 L 98.5 222 L 93.5 221 L 78.5 213 L 70.5 211 L 68.5 209 L 65.5 209 L 61 205.5 L 61.5 204 L 68.5 204 L 75.5 206 L 83.5 206 L 90.5 208 L 97.5 208 L 103.5 210 L 109.5 210 L 113.5 212 L 120.5 212 L 157 221 L 159 216.5 L 184 183.5 L 184 182 Q 186.7 183.1 186 180.5 L 205 158.5 L 205 157 Q 207.7 158.1 207 155.5 L 229.5 133 L 239.5 125 L 242 125 L 241 130.5 L 235 140.5 L 218 182.5 L 218 185.5 L 216 187.5 L 216 190.5 L 214 193.5 L 214 196.5 L 212 199.5 L 212 202.5 L 210 205.5 L 208 214.5 L 202 229.5 L 202 234 L 252.5 251 L 257.5 254 L 274.5 260 L 276.5 262 L 291.5 267 L 315.5 279 L 321.5 280 L 348 260.5 Q 347.3 258.3 349.5 259 L 357 252.5 Q 356.3 250.3 358.5 251 L 372.5 237 L 374 237 L 374 235.5 L 395 210.5 L 403 197.5 L 412 176.5 L 415 155.5 L 414 154.5 L 414 144.5 Q 411.4 143.1 412 138.5 L 408 129.5 L 403 122 L 400 120.5 L 398.5 118 L 389.5 111 L 376.5 105 L 368.5 104 L 365.5 102 L 358.5 102 L 357.5 101 L 333.5 100 L 332.5 101 L 309.5 102 L 303.5 104 L 296.5 104 L 290.5 106 L 284.5 106 L 280.5 108 L 275.5 108 L 270.5 110 L 265.5 110 L 253.5 114 L 248.5 114 L 244.5 116 L 232.5 118 L 222.5 122 L 216.5 122 L 209.5 126 L 204.5 126 L 199.5 129 L 196.5 129 L 187.5 133 L 178.5 135 L 176.5 137 L 167.5 139 L 165.5 141 L 157.5 143 L 155.5 145 L 121.5 159 L 117.5 162 L 115.5 162 L 101.5 170 L 87.5 176 L 43.5 201 L 38.5 205 L 36.5 205 L 13.5 221 L 8 223 L 8 218.5 Q 11 217.3 10 213 Q 13 214.3 12 210.5 L 29.5 187 Q 31.8 187.8 31 185.5 L 49.5 169 L 79.5 146 L 98.5 134 L 102.5 130 L 110.5 125 L 113 125 Q 111.9 122.3 114.5 123 L 129.5 113 L 131.5 113 L 143.5 105 L 145.5 105 L 148.5 102 L 150.5 102 L 159.5 96 L 162 96 Q 160.8 93 164.5 94 L 195.5 77 L 210.5 71 L 214.5 68 L 219.5 67 L 223.5 64 Q 228.7 64.2 230.5 61 L 233.5 61 L 235.5 59 L 238.5 59 L 244.5 55 L 247.5 55 L 249.5 53 L 257.5 51 L 264.5 47 L 278.5 42 L 281.5 42 L 283.5 40 L 286.5 40 L 289.5 38 L 292.5 38 L 313.5 30 L 364.5 17 L 370.5 17 L 375.5 15 L 380.5 15 L 387.5 13 L 394.5 13 L 399.5 11 L 408.5 11 L 409.5 10 L 418.5 10 L 419.5 9 L 433.5 9 L 434.5 8 Z " /><path fill="rgb(208,89,106)" stroke="rgb(208,89,106)" stroke-width="0" opacity="1" d="M 189 270 L 192.5 270 L 219.5 288 L 252.5 312 L 266.5 324 L 268 324 Q 266.9 326.7 269.5 326 L 305 357.5 L 305 359 L 307 359 Q 305.9 361.7 308.5 361 L 311.5 365 L 309.5 365 L 304 360.5 L 302.5 358 L 287.5 344 L 243.5 308 L 240.5 307 L 209.5 284 L 190.5 273 L 189 274.5 L 189 278.5 L 185 290.5 L 185 295.5 L 183 298.5 L 183 303.5 L 181 306.5 L 181 313.5 L 179 316.5 Q 180.4 323.9 177 326.5 L 177 334.5 L 175 338.5 L 175 346.5 L 173 351.5 Q 174 360.5 172 365 Q 168.7 366.3 170 361.5 L 172 355.5 L 172 346.5 L 174 341.5 L 174 334.5 L 176 329.5 L 176 322.5 Q 179 319.5 178 312.5 L 180 308.5 L 180 304.5 L 185 286.5 L 185 282.5 L 187 278.5 L 187 274.5 L 189 270 Z " /><path fill="rgb(206,10,34)" stroke="rgb(206,10,34)" stroke-width="0" opacity="1" d="M 429.5 11 L 476.5 11 L 477.5 12 L 488.5 12 L 489.5 13 L 501.5 14 L 502.5 15 L 508.5 15 L 511.5 17 L 516.5 17 L 539.5 25 L 556.5 35 L 566 43.5 L 565.5 45 L 569 47.5 L 577 63.5 L 578 73.5 L 579 74.5 L 579 87.5 L 578 88.5 L 578 95.5 L 576 103.5 L 571 115.5 L 571 118.5 L 569 120.5 L 563 134.5 L 552 151.5 L 538 167.5 L 538 169 Q 535.3 167.9 536 170.5 L 533 172 L 533 173.5 L 518.5 188 L 503 200.5 Q 503.8 203.1 500.5 202 L 479.5 218 L 436.5 243 L 434.5 243 L 432.5 245 L 408.5 256 L 406.5 258 L 395.5 262 L 389.5 266 L 384.5 267 L 370.5 274 L 345.5 283 L 334 288.5 Q 332.9 291.8 335.5 291 L 347.5 298 L 353.5 300 L 356.5 303 Q 358 300.5 359.5 304 L 398 326.5 Q 397.2 329.1 400.5 328 L 423 343.5 Q 422.1 346.5 426.5 345 L 453 364.5 L 312.5 365 L 307 361 L 307 359 Q 304.3 360.1 305 357.5 L 279.5 334 L 268 326 Q 269.1 323.3 266.5 324 Q 250.7 309.1 232 298 Q 233.1 295.3 230.5 296 L 192.5 270 L 189.5 270 L 178.5 262 L 168.5 258 L 162.5 253 L 144.5 243 L 143 243.5 L 141.5 241 L 126.5 233 L 124.5 233 L 121.5 230 Q 120 232.5 118.5 229 L 78 211 L 78.5 209 L 88.5 209 L 92.5 211 L 100.5 211 L 104.5 213 L 111.5 213 L 116.5 215 L 121.5 215 L 125.5 217 L 130.5 217 L 152.5 223 L 157.5 223 L 165.5 225 L 176.5 229 L 184.5 230 L 193.5 234 L 199.5 235 L 201.5 237 L 220.5 242 L 234.5 248 L 237.5 248 L 294.5 271 L 313.5 281 L 321.5 283 L 342.5 267 L 347 265 Q 345.9 262.3 348.5 263 L 351 262 L 353.5 258 L 376 237.5 L 390 221.5 L 395 213 L 397 212.5 L 396 211.5 L 399 208.5 L 407 195.5 L 415 174.5 L 416 166.5 L 417 165.5 L 417 146.5 L 412 131.5 Q 406.9 122.1 399 115.5 L 399 114 L 383.5 105 L 368.5 100 L 362.5 100 L 354.5 98 L 321.5 98 L 315.5 100 L 304.5 100 L 298.5 102 L 281.5 104 L 271.5 107 L 266.5 107 L 263.5 109 L 249.5 111 L 246.5 113 L 241.5 113 L 238.5 115 Q 233.2 114.2 231.5 117 L 226.5 117 L 223.5 119 L 219.5 119 L 216.5 121 L 212.5 121 L 209.5 123 L 206.5 123 L 190.5 129 L 187.5 129 L 171.5 136 L 163.5 138 L 161.5 140 L 149.5 144 L 147.5 146 L 144.5 146 L 122.5 156 L 86.5 175 L 80.5 177 L 75.5 181 L 73.5 181 L 35.5 203 L 19.5 214 L 18 213.5 Q 18.8 215.8 16.5 215 Q 11.7 212.8 16 210.5 L 18 205.5 L 25.5 195 Q 27.8 195.8 27 193.5 L 30 189 L 33 187.5 L 34.5 185 L 68.5 157 L 75 154 Q 73.9 151.3 76.5 152 L 119.5 122 L 121.5 122 L 139.5 110 L 141.5 110 L 177.5 89 L 178.5 90 L 181.5 87 L 214.5 72 L 216.5 70 L 227.5 66 L 229.5 64 L 232.5 64 L 243.5 58 L 246.5 58 L 274.5 46 L 319.5 31 L 323.5 31 L 326.5 29 L 330.5 29 L 333.5 27 L 338.5 27 L 341.5 25 Q 346.8 25.8 348.5 23 L 354.5 23 L 358.5 21 Q 359.5 23 360.5 21 L 364.5 21 L 366.5 19 L 373.5 19 L 378.5 17 L 385.5 17 L 390.5 15 L 415.5 13 L 416.5 12 L 428.5 12 L 429.5 11 Z " /></svg>